<?xml version="1.0" encoding="utf-8"?>
<!-- Generator: Adobe Illustrator 16.0.0, SVG Export Plug-In . SVG Version: 6.00 Build 0)  -->
<!DOCTYPE svg PUBLIC "-//W3C//DTD SVG 1.1//EN" "http://www.w3.org/Graphics/SVG/1.1/DTD/svg11.dtd">
<svg version="1.1" id="Layer_1" xmlns="http://www.w3.org/2000/svg" xmlns:xlink="http://www.w3.org/1999/xlink" x="0px" y="0px"
	 width="512px" height="512px" viewBox="0 0 512 512" enable-background="new 0 0 512 512" xml:space="preserve">
<path fill="#FAFBFB" d="M458.707,202.95H444.68V46.189H46.394v398.286h255.019v6.161h2.266v13.506h152.765v-13.506h2.265V202.95z
	 M316.412,217.95h127.296v217.686H316.412V217.95z M301.412,202.95v90.742l-39.242-2.539l-106.829-63.088l-0.11,0.187l24.257-62.091
	l250.191-64.506V202.95H301.412z M429.68,86.163l-146.969,37.893l-16.873-62.867H429.68V86.163z M250.309,61.189l17.878,66.611
	l-99.876,25.751l-45.687,116.942l-61.23,10.229V61.189H250.309z M61.394,429.475V295.931l72.104-12.046l16.285-41.684l107.845,63.69
	l43.301,2.801l0.484,0.075v120.708H61.394z"/>
<g>
	<defs>
		<rect id="SVGID_1_" width="512" height="512"/>
	</defs>
	<clipPath id="SVGID_2_">
		<use xlink:href="#SVGID_1_"  overflow="visible"/>
	</clipPath>
	<path clip-path="url(#SVGID_2_)" fill="#FAFBFB" d="M380.06,226.321c-23.651,0-42.826,19.174-42.826,42.827
		c0,23.652,19.175,42.826,42.826,42.826s42.826-19.174,42.826-42.826C422.886,245.495,403.711,226.321,380.06,226.321
		 M380.06,296.975c-15.343,0-27.826-12.483-27.826-27.826c0-15.344,12.483-27.827,27.826-27.827
		c15.344,0,27.826,12.483,27.826,27.827C407.886,284.491,395.403,296.975,380.06,296.975"/>
	<path clip-path="url(#SVGID_2_)" fill="#FAFBFB" d="M165.394,304.475c-12.958,0-23.5,10.542-23.5,23.5s10.542,23.5,23.5,23.5
		s23.5-10.542,23.5-23.5S178.352,304.475,165.394,304.475 M165.394,336.475c-4.687,0-8.5-3.813-8.5-8.5c0-4.688,3.813-8.5,8.5-8.5
		s8.5,3.813,8.5,8.5C173.894,332.661,170.081,336.475,165.394,336.475"/>
	<path clip-path="url(#SVGID_2_)" fill="#FAFBFB" d="M404.733,115.021c-12.958,0-23.5,10.542-23.5,23.5s10.542,23.5,23.5,23.5
		s23.5-10.542,23.5-23.5S417.691,115.021,404.733,115.021 M404.733,147.021c-4.688,0-8.5-3.813-8.5-8.5c0-4.687,3.813-8.5,8.5-8.5
		c4.687,0,8.5,3.813,8.5,8.5C413.233,143.208,409.42,147.021,404.733,147.021"/>
	<path clip-path="url(#SVGID_2_)" fill="#FAFBFB" d="M181.394,130.682c12.958,0,23.5-10.542,23.5-23.5s-10.542-23.5-23.5-23.5
		s-23.5,10.542-23.5,23.5S168.436,130.682,181.394,130.682 M181.394,98.682c4.687,0,8.5,3.813,8.5,8.5s-3.813,8.5-8.5,8.5
		s-8.5-3.813-8.5-8.5S176.707,98.682,181.394,98.682"/>
</g>
</svg>
