<?xml version="1.0" encoding="utf-8"?>
<!-- Generator: Adobe Illustrator 16.0.0, SVG Export Plug-In . SVG Version: 6.00 Build 0)  -->
<!DOCTYPE svg PUBLIC "-//W3C//DTD SVG 1.1//EN" "http://www.w3.org/Graphics/SVG/1.1/DTD/svg11.dtd">
<svg version="1.1" id="Layer_1" xmlns="http://www.w3.org/2000/svg" xmlns:xlink="http://www.w3.org/1999/xlink" x="0px" y="0px"
	 width="512px" height="512px" viewBox="0 0 512 512" enable-background="new 0 0 512 512" xml:space="preserve">
<g>
	<defs>
		<rect id="SVGID_1_" width="512" height="512"/>
	</defs>
	<clipPath id="SVGID_2_">
		<use xlink:href="#SVGID_1_"  overflow="visible"/>
	</clipPath>
</g>
<g>
	<defs>
		<rect id="SVGID_3_" width="512" height="512"/>
	</defs>
	<clipPath id="SVGID_4_">
		<use xlink:href="#SVGID_3_"  overflow="visible"/>
	</clipPath>
	<path clip-path="url(#SVGID_4_)" fill="#9596A7" d="M263.561,93.63V61.189c0-4.142-3.357-7.5-7.5-7.5c-4.144,0-7.5,3.358-7.5,7.5
		V93.63H112.228v15h287.665v-15H263.561z"/>
	<path clip-path="url(#SVGID_4_)" fill="#9596A7" d="M139.59,458.902h232.857l11.147-338.645h-255.15L139.59,458.902z
		 M368.093,135.257l-10.158,308.645h-203.83l-10.158-308.645H368.093z"/>
	<path clip-path="url(#SVGID_4_)" fill="#9596A7" d="M256.061,396.411c4.143,0,7.5-3.357,7.5-7.5V194.464c0-4.142-3.357-7.5-7.5-7.5
		c-4.144,0-7.5,3.358-7.5,7.5v194.447C248.56,393.054,251.917,396.411,256.061,396.411"/>
	<path clip-path="url(#SVGID_4_)" fill="#9596A7" d="M205.768,396.411c0.069,0,0.14-0.001,0.209-0.003
		c4.141-0.113,7.405-3.562,7.292-7.703l-5.326-194.446c-0.113-4.141-3.544-7.41-7.702-7.292c-4.141,0.113-7.406,3.562-7.292,7.703
		l5.326,194.447C198.386,393.188,201.721,396.411,205.768,396.411"/>
	<path clip-path="url(#SVGID_4_)" fill="#9596A7" d="M307.305,396.408c0.068,0.002,0.14,0.003,0.209,0.003
		c4.047,0,7.382-3.224,7.493-7.295l5.324-194.447c0.114-4.14-3.15-7.589-7.292-7.702c-4.099-0.107-7.589,3.151-7.701,7.292
		l-5.325,194.446C299.899,392.847,303.163,396.295,307.305,396.408"/>
</g>
</svg>
