<?xml version="1.0" encoding="utf-8"?>
<!-- Generator: Adobe Illustrator 16.0.0, SVG Export Plug-In . SVG Version: 6.00 Build 0)  -->
<!DOCTYPE svg PUBLIC "-//W3C//DTD SVG 1.1//EN" "http://www.w3.org/Graphics/SVG/1.1/DTD/svg11.dtd">
<svg version="1.1" id="Layer_1" xmlns="http://www.w3.org/2000/svg" xmlns:xlink="http://www.w3.org/1999/xlink" x="0px" y="0px"
	 width="512px" height="512px" viewBox="0 0 512 512" enable-background="new 0 0 512 512" xml:space="preserve">
<g>
	<defs>
		<rect id="SVGID_1_" width="512" height="512"/>
	</defs>
	<clipPath id="SVGID_2_">
		<use xlink:href="#SVGID_1_"  overflow="visible"/>
	</clipPath>
</g>
<rect x="138.912" y="398.033" fill="#BADA87" width="235" height="44.863"/>
<path fill="#8183A5" d="M113.706,21.621v447.568h6.854v20.977H384.5v-20.977h13.438V21.621H113.706z M128.706,36.621h254.231
	v417.566H128.706V36.621z M369.5,475.166H135.561v-5.978H369.5V475.166z"/>
<g>
	<defs>
		<rect id="SVGID_3_" width="512" height="512"/>
	</defs>
	<clipPath id="SVGID_4_">
		<use xlink:href="#SVGID_3_"  overflow="visible"/>
	</clipPath>
	<path clip-path="url(#SVGID_4_)" fill="#8183A5" d="M255.821,63.855c-42.739,0-77.387,34.647-77.387,77.386
		c0,42.741,34.648,77.387,77.387,77.387c42.74,0,77.387-34.646,77.387-77.387C333.208,98.502,298.562,63.855,255.821,63.855
		 M255.821,203.628c-34.399,0-62.387-27.986-62.387-62.387c0-34.399,27.988-62.386,62.387-62.386
		c34.399,0,62.387,27.987,62.387,62.386C318.208,175.642,290.221,203.628,255.821,203.628"/>
</g>
</svg>
