<?xml version="1.0" encoding="utf-8"?>
<!-- Generator: Adobe Illustrator 16.0.0, SVG Export Plug-In . SVG Version: 6.00 Build 0)  -->
<!DOCTYPE svg PUBLIC "-//W3C//DTD SVG 1.1//EN" "http://www.w3.org/Graphics/SVG/1.1/DTD/svg11.dtd">
<svg version="1.1" id="Layer_1" xmlns="http://www.w3.org/2000/svg" xmlns:xlink="http://www.w3.org/1999/xlink" x="0px" y="0px"
	 width="512px" height="512px" viewBox="0 0 512 512" enable-background="new 0 0 512 512" xml:space="preserve">
<g>
	<defs>
		<rect id="SVGID_1_" width="512" height="512"/>
	</defs>
	<clipPath id="SVGID_2_">
		<use xlink:href="#SVGID_1_"  overflow="visible"/>
	</clipPath>
</g>
<g>
	<defs>
		<rect id="SVGID_3_" width="512" height="512"/>
	</defs>
	<clipPath id="SVGID_4_">
		<use xlink:href="#SVGID_3_"  overflow="visible"/>
	</clipPath>
	<path clip-path="url(#SVGID_4_)" fill="#FAFBFB" d="M46.394,466.402h420.213V46.189H46.394V466.402z M61.394,61.189h186.218
		l-99.524,53.519c-2.87-1.252-6.035-1.951-9.361-1.951c-12.958,0-23.5,10.542-23.5,23.5c0,10.79,7.312,19.898,17.238,22.646
		l30.817,145.995c-3.363,4.065-5.388,9.278-5.388,14.957c0,12.958,10.542,23.5,23.5,23.5c11.885,0,21.731-8.87,23.281-20.337
		l131.041-142.411c1.304,0.694,2.679,1.271,4.113,1.712l14.765,149.494c-8.961,3.316-15.366,11.947-15.366,22.047
		c0,4.863,1.484,9.386,4.025,13.14l-115.808,84.401H61.394V61.189z M138.727,144.757c-4.686,0-8.5-3.813-8.5-8.5s3.814-8.5,8.5-8.5
		c4.687,0,8.5,3.813,8.5,8.5S143.414,144.757,138.727,144.757 M181.394,311.355c4.687,0,8.5,3.813,8.5,8.5
		c0,4.687-3.813,8.5-8.5,8.5c-4.686,0-8.5-3.813-8.5-8.5C172.894,315.168,176.708,311.355,181.394,311.355 M346.727,168.355
		c-4.687,0-8.5-3.813-8.5-8.5s3.813-8.5,8.5-8.5s8.5,3.813,8.5,8.5S351.413,168.355,346.727,168.355 M354.227,353.861
		c0-4.688,3.813-8.5,8.5-8.5s8.5,3.813,8.5,8.5c0,4.687-3.813,8.5-8.5,8.5S354.227,358.548,354.227,353.861 M451.606,451.402
		H252.912l102.984-75.057c2.163,0.658,4.456,1.016,6.831,1.016c12.958,0,23.5-10.542,23.5-23.5c0-10.559-7-19.51-16.602-22.465
		L354.86,181.902c8.961-3.316,15.366-11.947,15.366-22.047c0-12.958-10.542-23.5-23.5-23.5s-23.5,10.542-23.5,23.5
		c0,3.506,0.777,6.833,2.16,9.825L200.178,305.753c-4.292-5.703-11.114-9.397-18.785-9.397c-1.537,0-3.038,0.152-4.493,0.436
		L147.605,158.01c8.568-3.51,14.621-11.936,14.621-21.753c0-3.861-0.942-7.505-2.599-10.723l119.654-64.345h172.325V451.402z"/>
</g>
</svg>
