<?xml version="1.0" encoding="utf-8"?>
<!-- Generator: Adobe Illustrator 16.0.0, SVG Export Plug-In . SVG Version: 6.00 Build 0)  -->
<!DOCTYPE svg PUBLIC "-//W3C//DTD SVG 1.1//EN" "http://www.w3.org/Graphics/SVG/1.1/DTD/svg11.dtd">
<svg version="1.1" id="Layer_1" xmlns="http://www.w3.org/2000/svg" xmlns:xlink="http://www.w3.org/1999/xlink" x="0px" y="0px"
	 width="512px" height="512px" viewBox="0 0 512 512" enable-background="new 0 0 512 512" xml:space="preserve">
<g>
	<defs>
		<rect id="SVGID_1_" width="512" height="512"/>
	</defs>
	<clipPath id="SVGID_2_">
		<use xlink:href="#SVGID_1_"  overflow="visible"/>
	</clipPath>
</g>
<g>
	<defs>
		<rect id="SVGID_3_" width="512" height="512"/>
	</defs>
	<clipPath id="SVGID_4_">
		<use xlink:href="#SVGID_3_"  overflow="visible"/>
	</clipPath>
	<path clip-path="url(#SVGID_4_)" fill="#9596A7" d="M246.27,295.803c-23.529-23.528-34.76-54.691-33.71-85.513
		c-25.857,0.879-51.47,10.407-72.139,28.582c-0.058-0.061-0.107-0.125-0.167-0.184l-27.225-27.224c-2.927-2.93-7.676-2.929-10.606,0
		c-2.929,2.929-2.929,7.678,0.001,10.606l27.225,27.224c0.058,0.059,0.122,0.109,0.182,0.165
		c-18.195,20.684-27.729,46.322-28.6,72.201c1.301-0.044,2.605-0.065,3.907-0.065c29.52,0,59.039,11.254,81.562,33.778
		c23.517,23.517,34.749,54.66,33.712,85.469c28.206-0.949,56.13-12.182,77.66-33.711c21.52-21.521,32.751-49.427,33.711-77.617
		c-1.315,0.045-2.635,0.067-3.951,0.067C298.311,329.58,268.793,318.326,246.27,295.803 M287.465,396.522
		c-14.473,14.473-32.763,24.037-52.593,27.704c-1.132-11.709-3.845-23.174-8.112-34.249c-6.558-17.015-16.468-32.226-29.454-45.213
		c-21.595-21.595-49.442-34.679-79.461-37.563c3.666-19.83,13.23-38.123,27.703-52.596c14.461-14.46,32.732-24.02,52.545-27.694
		c1.129,11.713,3.84,23.182,8.106,34.261c6.558,17.023,16.47,32.244,29.463,45.235c21.604,21.604,49.463,34.69,79.497,37.567
		C311.486,363.789,301.927,382.063,287.465,396.522"/>
	<path clip-path="url(#SVGID_4_)" fill="#9596A7" d="M415.717,265.534l-113.22-113.219c-2.929-2.929-7.677-2.929-10.606,0
		c-2.93,2.928-2.93,7.677,0,10.606l113.22,113.219c1.464,1.465,3.384,2.197,5.303,2.197c1.92,0,3.839-0.732,5.304-2.197
		C418.646,273.213,418.646,268.464,415.717,265.534"/>
	<path clip-path="url(#SVGID_4_)" fill="#9596A7" d="M241.275,128.853c7.447,7.448,15.472,13.572,22.593,17.244
		c5.458,2.813,9.782,3.857,13.196,3.857c4.277,0,7.124-1.638,8.977-3.489c10.02-10.021-3.226-30.378-17.613-44.765
		c-14.387-14.388-34.745-27.635-44.765-17.613C213.642,94.109,226.887,114.466,241.275,128.853L241.275,128.853z M257.822,112.306
		c9.099,9.098,14.077,17.235,15.901,21.843c-4.606-1.824-12.744-6.804-21.843-15.903h0.001
		c-9.099-9.098-14.079-17.235-15.903-21.842C240.588,98.228,248.724,103.208,257.822,112.306"/>
	<path clip-path="url(#SVGID_4_)" fill="#9596A7" d="M314.422,151.584c14.173,0,19.2-23.76,19.2-44.108
		c0-20.347-5.027-44.107-19.2-44.107s-19.2,23.76-19.2,44.107C295.222,127.824,300.249,151.584,314.422,151.584 M314.422,80.787
		c1.969,4.548,4.2,13.822,4.2,26.689c0,12.868-2.231,22.142-4.2,26.69c-1.969-4.548-4.2-13.822-4.2-26.69
		C310.222,94.609,312.453,85.335,314.422,80.787"/>
	<path clip-path="url(#SVGID_4_)" fill="#9596A7" d="M397.065,234.229c14.174,0,19.201-23.76,19.201-44.108
		c0-20.347-5.027-44.107-19.201-44.107c-14.172,0-19.199,23.76-19.199,44.107C377.866,210.469,382.894,234.229,397.065,234.229
		 M397.065,163.432c1.97,4.548,4.201,13.822,4.201,26.689c0,12.868-2.231,22.142-4.201,26.69c-1.968-4.548-4.199-13.822-4.199-26.69
		C392.866,177.254,395.098,167.98,397.065,163.432"/>
	<path clip-path="url(#SVGID_4_)" fill="#9596A7" d="M355.744,192.907c14.173,0,19.2-23.76,19.2-44.108
		c0-20.347-5.027-44.107-19.2-44.107s-19.2,23.76-19.2,44.107C336.544,169.146,341.571,192.907,355.744,192.907 M355.744,122.109
		c1.969,4.548,4.2,13.822,4.2,26.689c0,12.868-2.231,22.142-4.2,26.69c-1.969-4.548-4.2-13.822-4.2-26.69
		C351.544,135.932,353.775,126.658,355.744,122.109"/>
	<path clip-path="url(#SVGID_4_)" fill="#9596A7" d="M248.708,192.392c20.347,0,44.107-5.029,44.107-19.201s-23.76-19.2-44.107-19.2
		s-44.107,5.028-44.107,19.2S228.36,192.392,248.708,192.392 M248.708,168.99c12.867,0,22.142,2.232,26.689,4.2
		c-4.547,1.968-13.822,4.201-26.689,4.201c-12.867,0-22.142-2.233-26.689-4.201C226.565,171.223,235.84,168.99,248.708,168.99"/>
	<path clip-path="url(#SVGID_4_)" fill="#9596A7" d="M331.353,236.635c-20.348,0-44.107,5.028-44.107,19.2
		c0,14.172,23.76,19.201,44.107,19.201c20.347,0,44.106-5.029,44.106-19.201C375.459,241.663,351.699,236.635,331.353,236.635
		 M331.353,260.036c-12.867,0-22.143-2.232-26.689-4.201c4.547-1.968,13.822-4.2,26.689-4.2c12.866,0,22.142,2.232,26.688,4.2
		C353.494,257.804,344.219,260.036,331.353,260.036"/>
	<path clip-path="url(#SVGID_4_)" fill="#9596A7" d="M245.923,214.513c0,14.172,23.76,19.201,44.106,19.201
		c20.348,0,44.107-5.029,44.107-19.201s-23.76-19.2-44.107-19.2C269.683,195.313,245.923,200.341,245.923,214.513 M290.029,210.313
		c12.867,0,22.143,2.232,26.689,4.2c-4.547,1.968-13.822,4.201-26.689,4.201c-12.866,0-22.142-2.233-26.688-4.201
		C267.888,212.545,277.163,210.313,290.029,210.313"/>
</g>
</svg>
