<svg id="icon" xmlns="http://www.w3.org/2000/svg" viewBox="0 0 512 512"><defs><style>.cls-1{fill:#231f20;}</style></defs><title>Icon_biowaste_01</title><path class="cls-1" d="M246.27,295.8a115,115,0,0,1-33.71-85.51,114.92,114.92,0,0,0-72.14,28.58l-.17-.18L113,211.46a7.5,7.5,0,1,0-10.61,10.61l27.22,27.22.18.17a114.92,114.92,0,0,0-28.6,72.2q2-.07,3.91-.07A115.32,115.32,0,0,1,220.41,440.84,115.32,115.32,0,0,0,331.78,329.51c-1.32,0-2.64.07-4,.07A115,115,0,0,1,246.27,295.8Zm41.2,100.72a99.94,99.94,0,0,1-52.59,27.7,130.38,130.38,0,0,0-117-117,100.38,100.38,0,0,1,80.25-80.29A130.38,130.38,0,0,0,315.16,344,100,100,0,0,1,287.47,396.52Z"/><path class="cls-1" d="M415.72,265.53,302.5,152.32a7.5,7.5,0,0,0-10.61,10.61L405.11,276.14a7.5,7.5,0,0,0,10.61-10.61Z"/><path class="cls-1" d="M241.27,128.85c7.45,7.45,15.47,13.57,22.59,17.24,5.46,2.81,9.78,3.86,13.2,3.86a12.19,12.19,0,0,0,9-3.49c10-10-3.22-30.38-17.61-44.77s-34.75-27.63-44.77-17.61,3.22,30.38,17.61,44.77Zm16.55-16.55c9.1,9.1,14.08,17.24,15.9,21.84-4.61-1.82-12.74-6.8-21.84-15.9h0c-9.1-9.1-14.08-17.24-15.9-21.84C240.59,98.23,248.72,103.21,257.82,112.31Z"/><path class="cls-1" d="M314.42,151.58c14.17,0,19.2-23.76,19.2-44.11s-5-44.11-19.2-44.11-19.2,23.76-19.2,44.11S300.25,151.58,314.42,151.58Zm0-70.8c2,4.55,4.2,13.82,4.2,26.69s-2.23,22.14-4.2,26.69c-2-4.55-4.2-13.82-4.2-26.69S312.45,85.34,314.42,80.79Z"/><path class="cls-1" d="M397.07,234.23c14.17,0,19.2-23.76,19.2-44.11s-5-44.11-19.2-44.11-19.2,23.76-19.2,44.11S382.89,234.23,397.07,234.23Zm0-70.8c2,4.55,4.2,13.82,4.2,26.69s-2.23,22.14-4.2,26.69c-2-4.55-4.2-13.82-4.2-26.69S395.1,168,397.07,163.43Z"/><path class="cls-1" d="M355.74,192.91c14.17,0,19.2-23.76,19.2-44.11s-5-44.11-19.2-44.11-19.2,23.76-19.2,44.11S341.57,192.91,355.74,192.91Zm0-70.8c2,4.55,4.2,13.82,4.2,26.69s-2.23,22.14-4.2,26.69c-2-4.55-4.2-13.82-4.2-26.69S353.78,126.66,355.74,122.11Z"/><path class="cls-1" d="M248.71,192.39c20.35,0,44.11-5,44.11-19.2S269.05,154,248.71,154s-44.11,5-44.11,19.2S228.36,192.39,248.71,192.39Zm0-23.4c12.87,0,22.14,2.23,26.69,4.2-4.55,2-13.82,4.2-26.69,4.2s-22.14-2.23-26.69-4.2C226.57,171.22,235.84,169,248.71,169Z"/><path class="cls-1" d="M331.35,236.63c-20.35,0-44.11,5-44.11,19.2S311,275,331.35,275s44.11-5,44.11-19.2S351.7,236.63,331.35,236.63Zm0,23.4c-12.87,0-22.14-2.23-26.69-4.2,4.55-2,13.82-4.2,26.69-4.2s22.14,2.23,26.69,4.2C353.49,257.8,344.22,260,331.35,260Z"/><path class="cls-1" d="M245.92,214.51c0,14.17,23.76,19.2,44.11,19.2s44.11-5,44.11-19.2-23.76-19.2-44.11-19.2S245.92,200.34,245.92,214.51Zm44.11-4.2c12.87,0,22.14,2.23,26.69,4.2-4.55,2-13.82,4.2-26.69,4.2s-22.14-2.23-26.69-4.2C267.89,212.55,277.16,210.31,290,210.31Z"/></svg>