<?xml version="1.0" encoding="utf-8"?>
<!-- Generator: Adobe Illustrator 16.0.0, SVG Export Plug-In . SVG Version: 6.00 Build 0)  -->
<!DOCTYPE svg PUBLIC "-//W3C//DTD SVG 1.1//EN" "http://www.w3.org/Graphics/SVG/1.1/DTD/svg11.dtd">
<svg version="1.1" id="Layer_1" xmlns="http://www.w3.org/2000/svg" xmlns:xlink="http://www.w3.org/1999/xlink" x="0px" y="0px"
	 width="512px" height="512px" viewBox="0 0 512 512" enable-background="new 0 0 512 512" xml:space="preserve">
<g>
	<defs>
		<rect id="SVGID_1_" width="512" height="512"/>
	</defs>
	<clipPath id="SVGID_2_">
		<use xlink:href="#SVGID_1_"  overflow="visible"/>
	</clipPath>
</g>
<g>
	<defs>
		<rect id="SVGID_3_" width="512" height="512"/>
	</defs>
	<clipPath id="SVGID_4_">
		<use xlink:href="#SVGID_3_"  overflow="visible"/>
	</clipPath>
	<path clip-path="url(#SVGID_4_)" fill="#9596A7" d="M426.705,112.363c-22.763-7.412-46.405-11.119-70.048-11.119
		c-23.645,0-47.287,3.707-70.05,11.119l-30.548,9.949l-30.548-9.949c-22.761-7.412-46.405-11.119-70.049-11.119
		c-23.643,0-47.287,3.707-70.047,11.119l-31.049,10.111v287.991l31.049-10.111c22.76-7.413,46.404-11.119,70.047-11.119
		c23.644,0,47.288,3.706,70.049,11.119l30.048,9.785v0.326l0.5-0.162l0.5,0.162v-0.326l30.048-9.785
		c22.763-7.413,46.405-11.119,70.05-11.119c23.643,0,47.285,3.706,70.048,11.119l31.048,10.111V122.475L426.705,112.363z
		 M241.56,389.806l-11.404-3.714c-24.156-7.867-49.287-11.856-74.693-11.856c-25.405,0-50.536,3.989-74.692,11.856l-11.404,3.714
		v-256.44l20.694-6.739c21.152-6.889,43.157-10.382,65.402-10.382c22.247,0,44.251,3.493,65.404,10.382l20.693,6.739V389.806z
		 M442.753,389.806l-11.403-3.714c-24.157-7.867-49.287-11.856-74.692-11.856c-25.406,0-50.536,3.989-74.694,11.856l-11.403,3.714
		v-256.44l20.693-6.739c21.153-6.889,43.158-10.382,65.404-10.382c22.244,0,44.25,3.493,65.402,10.382l20.693,6.739V389.806z"/>
	<path clip-path="url(#SVGID_4_)" fill="#9596A7" d="M118.117,164.493l-15.524,5.056l4.644,14.262l15.525-5.055
		c21.394-6.967,44.009-6.967,65.403,0l15.524,5.055l4.645-14.262l-15.524-5.056C168.378,156.536,142.549,156.536,118.117,164.493"/>
	<path clip-path="url(#SVGID_4_)" fill="#9596A7" d="M118.117,208.327l-15.524,5.056l4.644,14.262l15.525-5.055
		c21.394-6.968,44.01-6.967,65.403,0l15.524,5.055l4.645-14.262l-15.525-5.056C168.378,200.371,142.55,200.371,118.117,208.327"/>
	<path clip-path="url(#SVGID_4_)" fill="#9596A7" d="M118.117,252.162l-15.524,5.057l4.644,14.262l15.525-5.055
		c21.394-6.968,44.009-6.968,65.403,0l15.524,5.055l4.645-14.262l-15.524-5.057C168.378,244.205,142.549,244.204,118.117,252.162"/>
	<path clip-path="url(#SVGID_4_)" fill="#9596A7" d="M319.31,164.493l-15.523,5.056l4.645,14.262l15.524-5.055
		c21.393-6.967,44.01-6.967,65.403,0l15.524,5.055l4.645-14.262l-15.524-5.056C369.571,156.536,343.742,156.537,319.31,164.493"/>
	<path clip-path="url(#SVGID_4_)" fill="#9596A7" d="M319.31,208.327l-15.523,5.056l4.645,14.262l15.524-5.055
		c21.393-6.967,44.009-6.967,65.403,0l15.524,5.055l4.645-14.262l-15.524-5.056C369.57,200.371,343.742,200.371,319.31,208.327"/>
	<path clip-path="url(#SVGID_4_)" fill="#9596A7" d="M319.31,252.162l-15.523,5.057l4.645,14.262l15.524-5.055
		c21.393-6.968,44.01-6.968,65.403,0l15.524,5.055l4.645-14.262l-15.524-5.057C369.572,244.205,343.742,244.205,319.31,252.162"/>
	<rect x="248.322" y="126.916" clip-path="url(#SVGID_4_)" fill="#9596A7" width="15" height="279.213"/>
</g>
</svg>
