<?xml version="1.0" encoding="utf-8"?>
<!-- Generator: Adobe Illustrator 16.0.0, SVG Export Plug-In . SVG Version: 6.00 Build 0)  -->
<!DOCTYPE svg PUBLIC "-//W3C//DTD SVG 1.1//EN" "http://www.w3.org/Graphics/SVG/1.1/DTD/svg11.dtd">
<svg version="1.1" id="Layer_1" xmlns="http://www.w3.org/2000/svg" xmlns:xlink="http://www.w3.org/1999/xlink" x="0px" y="0px"
	 width="512px" height="512px" viewBox="0 0 512 512" enable-background="new 0 0 512 512" xml:space="preserve">
<g>
	<defs>
		<rect id="SVGID_1_" width="512" height="512"/>
	</defs>
	<clipPath id="SVGID_2_">
		<use xlink:href="#SVGID_1_"  overflow="visible"/>
	</clipPath>
</g>
<g>
	<defs>
		<rect id="SVGID_3_" width="512" height="512"/>
	</defs>
	<clipPath id="SVGID_4_">
		<use xlink:href="#SVGID_3_"  overflow="visible"/>
	</clipPath>
	<path clip-path="url(#SVGID_4_)" fill="#D8D8D8" d="M442.696,431.885l-123.83-123.83c24.427-27.009,39.305-62.814,39.305-102.096
		c0-84.097-68.174-152.27-152.271-152.27c-84.096,0-152.269,68.173-152.269,152.27c0,84.095,68.173,152.269,152.269,152.269
		c39.416,0,75.335-14.976,102.375-39.55L432.09,442.493c1.465,1.464,3.384,2.195,5.304,2.195c1.919,0,3.839-0.731,5.303-2.195
		C445.625,439.563,445.625,434.814,442.696,431.885 M108.836,303.022c-25.926-25.928-40.205-60.397-40.205-97.063
		s14.279-71.138,40.205-97.065c25.927-25.927,60.398-40.205,97.064-40.205s71.138,14.278,97.064,40.205
		c25.927,25.927,40.206,60.399,40.206,97.065s-14.279,71.136-40.206,97.063c-25.927,25.927-60.398,40.205-97.064,40.205
		S134.764,328.949,108.836,303.022"/>
</g>
</svg>
